<?xml version="1.0" encoding="UTF-8" standalone="no"?>
<!-- Created with Inkscape (http://www.inkscape.org/) -->

<svg
   width="64.63578mm"
   height="65.192734mm"
   viewBox="0 0 64.63578 65.192734"
   version="1.1"
   id="svg1"
   xml:space="preserve"
   xmlns="http://www.w3.org/2000/svg"
   xmlns:svg="http://www.w3.org/2000/svg"><defs
     id="defs1" /><g
     id="layer1"
     transform="translate(-69.576316,-49.87407)"><path
       style="fill:#038ea3;fill-opacity:1;stroke-width:1.3"
       d="M 107.51565,95.933824 88.134368,87.711911 80.758519,94.919495 89.37974,114.40092 Z"
       id="path1-2-0-6" /><path
       style="fill:#038ea3;fill-opacity:1;stroke-width:1.3"
       d="m 115.5883,76.583196 -8.07435,19.349714 7.31133,7.34444 19.38682,-8.83188 z"
       id="path1-2-0" /><path
       style="fill:#038ea3;fill-opacity:1;stroke-width:1.3"
       d="M 88.133714,87.712638 96.283215,68.388553 89.017828,60.998685 69.576319,69.709523 Z"
       id="path1-2" /><path
       style="fill:#038ea3;fill-opacity:1;stroke-width:1.3"
       d="m 96.279312,68.388685 19.309758,8.195193 7.40212,-7.248679 -8.6669,-19.46113 z"
       id="path1" /><path
       style="font-weight:bold;font-size:11.3338px;font-family:'Adwaita Sans';-inkscape-font-specification:'Adwaita Sans Bold';fill:#038ea3;stroke-width:2.08826"
       d="m 101.76055,115.0668 q -1.10682,0 -1.986735,-0.51467 -0.879919,-0.5202 -1.389055,-1.47206 -0.509135,-0.9574 -0.509135,-2.26344 0,-1.31712 0.509135,-2.26898 0.509136,-0.95739 1.389055,-1.47206 0.879915,-0.52021 1.986735,-0.52021 1.11235,0 1.99227,0.52021 0.87992,0.51467 1.38905,1.47206 0.50914,0.95186 0.50914,2.26898 0,1.31157 -0.50914,2.26344 -0.50913,0.95186 -1.38905,1.47206 -0.87992,0.51467 -1.99227,0.51467 z m 0,-1.50527 q 0.63642,0 1.12895,-0.32098 0.49254,-0.32097 0.76924,-0.93526 0.2767,-0.61428 0.2767,-1.48866 0,-0.87992 -0.2767,-1.49421 -0.2767,-0.61981 -0.76924,-0.94079 -0.49253,-0.32098 -1.12895,-0.32098 -0.63088,0 -1.12342,0.32098 -0.487,0.32098 -0.769236,0.94079 -0.276704,0.61429 -0.276704,1.49421 0,0.87438 0.276704,1.48866 0.282236,0.61429 0.769236,0.93526 0.49254,0.32098 1.12342,0.32098 z m 4.85339,1.37245 v -8.24578 h 3.25404 q 0.92973,0 1.60488,0.33205 0.67516,0.32651 1.04041,0.93526 0.37079,0.60321 0.37079,1.43886 0,0.83011 -0.37079,1.43886 -0.37078,0.60321 -1.05701,0.93526 -0.68069,0.33204 -1.61042,0.33204 h -2.28557 v -1.42779 h 2.19703 q 0.45379,0 0.78031,-0.15495 0.32651,-0.16049 0.5036,-0.44827 0.17709,-0.28777 0.17709,-0.67515 0,-0.39846 -0.17709,-0.6807 -0.17709,-0.28223 -0.5036,-0.43719 -0.32652,-0.16049 -0.78031,-0.16049 h -1.43886 v 6.81799 z m 5.65086,0 2.89433,-8.24578 h 2.19149 l 2.89433,8.24578 h -1.88712 l -1.29498,-4.01221 q -0.23797,-0.79137 -0.49253,-1.62702 -0.24904,-0.84118 -0.54234,-1.90926 h 0.47039 q -0.30437,1.06808 -0.55894,1.90926 -0.24903,0.83565 -0.49807,1.62702 l -1.33924,4.01221 z m 1.83732,-1.79857 v -1.36139 h 4.31105 v 1.36139 z m 6.81245,1.79857 v -8.24578 h 1.7045 v 6.78479 h 3.74657 v 1.46099 z m 6.30886,0 v -8.24578 h 1.70449 v 6.78479 h 3.74658 v 1.46099 z"
       id="text1"
       aria-label="OPALL" /></g></svg>
